name D:\school\WTK\thesis\model\3dpredictsim\Results\Final\Fal_s1_bCst_PF_Natali2010_ls148_MT_nl_fitted1_MTP_T10_ig1.mot
datacolumns 128
datarows 4
range 0.56058218 0.59421711
endheader
time	pelvis_tilt	pelvis_list	pelvis_rotation	pelvis_tx	pelvis_ty	pelvis_tz	hip_flexion_l	hip_adduction_l	hip_rotation_l	hip_flexion_r	hip_adduction_r	hip_rotation_r	knee_angle_l	knee_angle_r	ankle_angle_l	ankle_angle_r	subtalar_angle_l	subtalar_angle_r	tmt_angle_l	tmt_angle_r	mtp_angle_l	mtp_angle_r	lumbar_extension	lumbar_bending	lumbar_rotation	arm_flex_l	arm_add_l	arm_rot_l	arm_flex_r	arm_add_r	arm_rot_r	elbow_flex_l	elbow_flex_r	pro_sup_l	pro_sup_r	glut_med1_l/activation	glut_med2_l/activation	glut_med3_l/activation	glut_min1_l/activation	glut_min2_l/activation	glut_min3_l/activation	semimem_l/activation	semiten_l/activation	bifemlh_l/activation	bifemsh_l/activation	sar_l/activation	add_long_l/activation	add_brev_l/activation	add_mag1_l/activation	add_mag2_l/activation	add_mag3_l/activation	tfl_l/activation	pect_l/activation	grac_l/activation	glut_max1_l/activation	glut_max2_l/activation	glut_max3_l/activation	iliacus_l/activation	psoas_l/activation	quad_fem_l/activation	gem_l/activation	peri_l/activation	rect_fem_l/activation	vas_med_l/activation	vas_int_l/activation	vas_lat_l/activation	med_gas_l/activation	lat_gas_l/activation	soleus_l/activation	tib_post_l/activation	flex_dig_l/activation	flex_hal_l/activation	tib_ant_l/activation	per_brev_l/activation	per_long_l/activation	per_tert_l/activation	ext_dig_l/activation	ext_hal_l/activation	ercspn_l/activation	intobl_l/activation	extobl_l/activation	glut_med1_r/activation	glut_med2_r/activation	glut_med3_r/activation	glut_min1_r/activation	glut_min2_r/activation	glut_min3_r/activation	semimem_r/activation	semiten_r/activation	bifemlh_r/activation	bifemsh_r/activation	sar_r/activation	add_long_r/activation	add_brev_r/activation	add_mag1_r/activation	add_mag2_r/activation	add_mag3_r/activation	tfl_r/activation	pect_r/activation	grac_r/activation	glut_max1_r/activation	glut_max2_r/activation	glut_max3_r/activation	iliacus_r/activation	psoas_r/activation	quad_fem_r/activation	gem_r/activation	peri_r/activation	rect_fem_r/activation	vas_med_r/activation	vas_int_r/activation	vas_lat_r/activation	med_gas_r/activation	lat_gas_r/activation	soleus_r/activation	tib_post_r/activation	flex_dig_r/activation	flex_hal_r/activation	tib_ant_r/activation	per_brev_r/activation	per_long_r/activation	per_tert_r/activation	ext_dig_r/activation	ext_hal_r/activation	ercspn_r/activation	intobl_r/activation	extobl_r/activation	
          0.56058218	         -2.92994203	          1.92489838	         -4.97304051	          0.70072773	          0.91827306	          0.00245672	         29.97510388	          3.04465322	         -2.64982005	        -16.95389530	         -0.59331682	          6.50494180	        -11.59759620	         -5.94952289	          5.87227453	         -1.08507694	         -5.28759020	          6.27251806	          0.48635846	          5.48588428	         -0.72726086	         12.56574647	         -1.88984164	         -0.01152627	          1.90662924	         -4.50547323	        -13.46807704	          7.81826585	          5.42038853	        -13.44970710	         16.16080880	         16.39275789	         31.30432122	         86.51662706	         86.51662706	          0.08017770	          0.05000003	          0.05934302	          0.05000002	          0.05000003	          0.05000017	          0.23657851	          0.05934436	          0.07910866	          0.05009070	          0.05000052	          0.09136680	          0.18164657	          0.20003276	          0.14540639	          0.09687552	          0.05934314	          0.05000228	          0.10349695	          0.05934310	          0.05934312	          0.10561843	          0.05000004	          0.05000007	          0.25927975	          0.05001044	          0.05000011	          0.05000005	          0.05681878	          0.05766207	          0.05002588	          0.05934303	          0.05934303	          0.05934303	          0.05437032	          0.05000046	          0.05315038	          0.44949141	          0.28768631	          0.19651046	          0.09071857	          0.44200543	          0.05245064	          0.06415569	          0.13811533	          0.11775205	          0.31742390	          0.11775218	          0.08385635	          0.31085062	          0.22308150	          0.12383048	          0.05000017	          0.05000004	          0.05000003	          0.06522128	          0.11775461	          0.05000002	          0.05000002	          0.05000003	          0.05000011	          0.05000007	          0.34844814	          0.05000012	          0.05000011	          0.05005942	          0.05000106	          0.05000025	          0.43902128	          0.68116413	          0.05000008	          0.05000050	          0.07043236	          0.22949732	          0.05000044	          0.05000027	          0.05000024	          0.32880982	          0.44129223	          0.35128547	          0.29247072	          0.30408891	          0.37311344	          0.05000001	          0.05000096	          0.11193267	          0.05000007	          0.05000001	          0.05000007	          0.05000000	          0.05000000	          0.05000000	
          0.57179383	         -2.92930396	          2.02691427	         -5.28286162	          0.71725517	          0.91731850	          0.00225604	         29.48084948	          3.39496691	         -2.45276516	        -16.90339205	         -0.90034087	          6.29263232	        -11.71056269	         -7.74198081	          5.18137036	         -1.56293414	         -5.66991376	          7.19926732	          0.39227493	          5.11048597	         -0.76003255	         13.82430441	         -1.71215873	         -0.21581444	          1.97163114	         -5.35482380	        -13.46523386	          7.63910264	          5.24359432	        -13.45308226	         16.54448643	         15.97663850	         32.47319926	         86.51662706	         86.51662706	          0.06755470	          0.05934251	          0.05000003	          0.05934339	          0.05934308	          0.05000034	          0.19933135	          0.05000113	          0.06665371	          0.05000009	          0.05000011	          0.11775257	          0.23188387	          0.22466686	          0.15908484	          0.09442536	          0.05000013	          0.07043272	          0.08720239	          0.05000015	          0.05000010	          0.11156725	          0.07043175	          0.06439488	          0.51665211	          0.17751050	          0.12329169	          0.08359277	          0.17755621	          0.17619742	          0.15347146	          0.05000000	          0.05000000	          0.05000000	          0.05000001	          0.05000014	          0.05000007	          0.52067843	          0.26256305	          0.16557203	          0.24157590	          0.48123836	          0.05934733	          0.05405495	          0.11637030	          0.09921303	          0.26744836	          0.09921315	          0.07065392	          0.26190997	          0.18795931	          0.10433448	          0.05000094	          0.05000019	          0.05000019	          0.05495279	          0.09921524	          0.08192830	          0.07718073	          0.05008782	          0.05000376	          0.06899740	          0.29358811	          0.05002651	          0.05000078	          0.05000070	          0.05000070	          0.05000081	          0.36990128	          0.58788350	          0.05000016	          0.05000168	          0.05934343	          0.19336501	          0.05000054	          0.11139211	          0.13093159	          0.27704163	          0.37181470	          0.32869728	          0.28058863	          0.25628148	          0.33691519	          0.05000001	          0.05000016	          0.11054356	          0.05000006	          0.05000001	          0.05000008	          0.05000000	          0.07043822	          0.05000015	
          0.58300547	         -2.92487011	          2.12919361	         -5.56681918	          0.73413344	          0.91642595	          0.00206434	         28.86543186	          3.69165282	         -2.19670390	        -16.79816179	         -1.20869516	          6.07001202	        -12.24111842	         -9.63060252	          4.52298218	         -2.14781220	         -6.05646666	          8.10021035	          0.17303484	          4.58874526	         -0.76709438	         15.11639471	         -1.50907025	         -0.43001973	          2.02689123	         -6.24844960	        -13.46596927	          7.49405409	          4.98416743	        -13.45448686	         16.85725819	         15.62758816	         33.62255847	         86.51662706	         86.51662706	          0.17767627	          0.05000002	          0.12420681	          0.05000031	          0.05000006	          0.05000007	          0.18270628	          0.05000012	          0.07598962	          0.05000003	          0.05013889	          0.09921350	          0.19537586	          0.18929516	          0.13403846	          0.10455467	          0.05000015	          0.05934610	          0.07347332	          0.05000019	          0.08523486	          0.09400208	          0.05934299	          0.05583664	          0.43530982	          0.14956306	          0.10388058	          0.07043183	          0.14960156	          0.14845670	          0.12930875	          0.05874461	          0.06784495	          0.05762508	          0.05481777	          0.05000043	          0.05000080	          0.43870223	          0.26051650	          0.16508876	          0.20354192	          0.54106752	          0.05000362	          0.05000000	          0.11316562	          0.08359282	          0.31350182	          0.08359292	          0.05953009	          0.22067462	          0.15836680	          0.08790795	          0.05000066	          0.05000035	          0.05000037	          0.05000004	          0.08359473	          0.11512126	          0.08307296	          0.05934340	          0.05934329	          0.05934333	          0.24736536	          0.06250444	          0.05030410	          0.05000160	          0.05000183	          0.05934258	          0.31166365	          0.57090441	          0.05182776	          0.05000039	          0.05000035	          0.16292141	          0.16780288	          0.09385606	          0.11070342	          0.23342388	          0.31327577	          0.27694685	          0.23694892	          0.21593235	          0.28387100	          0.05000000	          0.05000021	          0.14023593	          0.05000002	          0.05000000	          0.05000003	          0.05000010	          0.05934835	          0.05934305	
          0.59421711	         -2.91806446	          2.22818248	         -5.81863922	          0.75123018	          0.91560926	          0.00186880	         28.11905391	          3.93393566	         -1.93244140	        -16.63162783	         -1.51218769	          5.84389233	        -12.73658409	        -11.60630307	          3.83138283	         -2.83687516	         -6.45014777	          8.95800196	          0.11341364	          3.91132178	         -0.70907566	         16.40788514	         -1.29454135	         -0.64854961	          2.07299951	         -7.15378471	        -13.46920188	          7.39228809	          4.65995991	        -13.45784592	         17.10891816	         15.32815150	         34.74680614	         86.51662706	         86.51662706	          0.25443367	          0.23491723	          0.27527082	          0.21152071	          0.18250948	          0.15724311	          0.15394079	          0.06643479	          0.06402574	          0.08359318	          0.05000058	          0.08359323	          0.16461568	          0.15949239	          0.11293542	          0.12214074	          0.05000022	          0.05000279	          0.10175126	          0.17089819	          0.14100806	          0.10131036	          0.05000005	          0.05000004	          0.36677416	          0.12601573	          0.13953202	          0.05934298	          0.12604816	          0.12508356	          0.10895027	          0.05000045	          0.05934285	          0.05000001	          0.05000001	          0.05000008	          0.05000010	          0.54137129	          0.34094377	          0.18773610	          0.45526689	          0.49614728	          0.20567897	          0.06946895	          0.11534942	          0.07043187	          0.26652097	          0.07043196	          0.05015761	          0.37181416	          0.13343338	          0.07406764	          0.05000052	          0.05000004	          0.05000003	          0.05000009	          0.07043366	          0.10699907	          0.06999389	          0.05000036	          0.05000041	          0.05000035	          0.26617099	          0.05266397	          0.05000015	          0.05000049	          0.05000027	          0.05000017	          0.27336693	          0.54450783	          0.05000002	          0.05000022	          0.05000014	          0.14202771	          0.14138413	          0.07907938	          0.14972355	          0.19667335	          0.26395328	          0.23334402	          0.19964345	          0.18193576	          0.23917806	          0.05000001	          0.08754016	          0.13745146	          0.05000009	          0.05000010	          0.05000008	          0.05803657	          0.05000447	          0.05000002	
